<?xml version="1.0" encoding="iso-8859-1"?>
<!-- Generator: Adobe Illustrator 21.0.0, SVG Export Plug-In . SVG Version: 6.00 Build 0)  -->
<svg version="1.1" id="Capa_1" xmlns="http://www.w3.org/2000/svg" xmlns:xlink="http://www.w3.org/1999/xlink" x="0px" y="0px"
	 viewBox="0 0 602.672 602.672" style="enable-background:new 0 0 602.672 602.672;" xml:space="preserve">
<g>
	<g>
		<g>
			<g id="filled_outline_16_">
				<rect x="10.045" y="60.267" style="fill:#4398D1;" width="140.623" height="482.137"/>
				<rect x="50.223" y="100.445" style="fill:#DADDDF;" width="60.267" height="200.891"/>
				<circle style="fill:#126099;" cx="80.356" cy="391.737" r="30.134"/>
				<rect x="150.668" y="60.267" style="fill:#DE4C3C;" width="140.623" height="482.137"/>
				<rect x="190.846" y="100.445" style="fill:#DADDDF;" width="60.267" height="200.891"/>
				<circle style="fill:#6E422B;" cx="220.98" cy="391.737" r="30.134"/>
				<rect x="291.291" y="60.267" style="fill:#BF4233;" width="301.336" height="482.137"/>
				<rect x="321.425" y="241.069" style="fill:#DADDDF;" width="60.267" height="20.089"/>
				<rect x="321.425" y="341.514" style="fill:#DADDDF;" width="60.267" height="20.089"/>
				<polygon style="fill:#C7CACC;" points="50.223,245.96 50.223,301.336 110.49,301.336 110.49,179.174 				"/>
				<polygon style="fill:#C7CACC;" points="190.846,247.588 190.846,302.963 251.113,302.963 251.113,180.801 				"/>
				<path d="M120.534,552.449V532.36H20.089V70.312h100.445V50.223H10.045C4.5,50.223,0,54.723,0,60.267v482.137
					c0,5.545,4.5,10.044,10.045,10.044H120.534z"/>
				<path d="M120.534,100.445c0-5.545-4.5-10.045-10.045-10.045H50.223c-5.545,0-10.045,4.5-10.045,10.045v200.891
					c0,5.545,4.5,10.045,10.045,10.045h60.267c5.545,0,10.045-4.5,10.045-10.045V100.445z M100.445,291.291H60.267V110.49h40.178
					V291.291z"/>
				<path d="M80.356,351.558c-22.188,0-40.178,17.99-40.178,40.178s17.99,40.178,40.178,40.178s40.178-17.99,40.178-40.178
					S102.545,351.558,80.356,351.558z M80.356,411.826c-11.099,0-20.089-8.99-20.089-20.089c0-11.099,8.99-20.089,20.089-20.089
					s20.089,8.99,20.089,20.089C100.445,402.836,91.455,411.826,80.356,411.826z"/>
				<path d="M251.113,90.401h-60.267c-5.545,0-10.045,4.5-10.045,10.045v200.891c0,5.545,4.5,10.045,10.045,10.045h60.267
					c5.545,0,10.045-4.5,10.045-10.045V100.445C261.158,94.901,256.658,90.401,251.113,90.401z M241.069,291.291h-40.178V110.49
					h40.178V291.291z"/>
				<path d="M220.98,351.558c-22.188,0-40.178,17.99-40.178,40.178s17.99,40.178,40.178,40.178s40.178-17.99,40.178-40.178
					S243.168,351.558,220.98,351.558z M220.98,411.826c-11.099,0-20.089-8.99-20.089-20.089c0-11.099,8.99-20.089,20.089-20.089
					s20.089,8.99,20.089,20.089C241.069,402.836,232.079,411.826,220.98,411.826z"/>
				<path d="M592.627,50.223H150.668c-5.545,0-10.045,4.5-10.045,10.045v482.137c0,5.545,4.5,10.044,10.045,10.044h441.959
					c5.545,0,10.045-4.5,10.045-10.044V60.267C602.672,54.723,598.172,50.223,592.627,50.223z M160.712,70.312h120.534V532.36
					H160.712V70.312z M582.583,532.36H301.336V70.312h281.247V532.36z"/>
				<rect x="321.425" y="241.069" width="60.267" height="20.089"/>
				<rect x="321.425" y="341.514" width="60.267" height="20.089"/>
			</g>
		</g>
	</g>
</g>
<g>
</g>
<g>
</g>
<g>
</g>
<g>
</g>
<g>
</g>
<g>
</g>
<g>
</g>
<g>
</g>
<g>
</g>
<g>
</g>
<g>
</g>
<g>
</g>
<g>
</g>
<g>
</g>
<g>
</g>
</svg>
