<?xml version="1.0" encoding="iso-8859-1"?>
<!-- Generator: Adobe Illustrator 21.0.0, SVG Export Plug-In . SVG Version: 6.00 Build 0)  -->
<svg version="1.1" id="Capa_1" xmlns="http://www.w3.org/2000/svg" xmlns:xlink="http://www.w3.org/1999/xlink" x="0px" y="0px"
	 viewBox="0 0 602.672 602.672" style="enable-background:new 0 0 602.672 602.672;" xml:space="preserve">
<g>
	<g>
		<g>
			<g id="filled_outline_18_">
				<path style="fill:#387EB3;" d="M40.178,452.004V130.579c0-22.188,17.99-40.178,40.178-40.178h441.959
					c22.188,0,40.178,17.99,40.178,40.178v321.425"/>
				<rect x="231.024" y="452.004" style="fill:#C7CACC;" width="140.623" height="40.178"/>
				<polyline style="fill:#4398D1;" points="80.356,452.004 80.356,130.579 522.315,130.579 522.315,452.004 				"/>
				<path style="fill:#DADDDF;" d="M562.493,512.271H40.178c-16.644,0-30.134-13.49-30.134-30.134v-30.134h229.839
					c6.88,0,13.178,3.887,16.252,10.045l0,0c3.074,6.157,9.372,10.045,16.252,10.045h57.897c6.88,0,13.178-3.887,16.252-10.045l0,0
					c3.074-6.157,9.372-10.045,16.252-10.045h229.839v30.134C592.627,498.781,579.137,512.271,562.493,512.271z"/>
				<path d="M592.627,441.959h-20.089v-311.38c-0.03-27.723-22.5-50.192-50.223-50.223H80.356
					c-27.723,0.03-50.192,22.5-50.223,50.223v311.38H10.045C4.5,441.959,0,446.459,0,452.004v30.134
					c0,22.188,17.99,40.178,40.178,40.178h522.315c22.188,0,40.178-17.99,40.178-40.178v-30.134
					C602.672,446.459,598.172,441.959,592.627,441.959z M50.223,130.579c0-16.644,13.49-30.134,30.134-30.134h441.959
					c16.644,0,30.134,13.49,30.134,30.134v311.38H532.36v-311.38c0-5.545-4.5-10.045-10.044-10.045H80.356
					c-5.545,0-10.045,4.5-10.045,10.045v311.38H50.223V130.579z M512.271,441.959H362.788c-10.697-0.03-20.481,6.017-25.232,15.599
					c-1.366,2.762-4.189,4.5-7.272,4.49h-57.897c-3.084,0.01-5.906-1.728-7.272-4.49c-4.751-9.582-14.534-15.629-25.232-15.599
					H90.401V140.623h421.87V441.959z M582.583,482.137c0,11.099-8.99,20.089-20.089,20.089H40.178
					c-11.099,0-20.089-8.99-20.089-20.089v-20.089h219.794c3.084-0.01,5.906,1.728,7.272,4.49
					c4.751,9.582,14.534,15.629,25.232,15.599h57.897c10.697,0.03,20.481-6.017,25.232-15.599c1.366-2.762,4.189-4.5,7.272-4.49
					h219.794V482.137z"/>
				
					<rect x="230.307" y="291.287" transform="matrix(0.7071 -0.7071 0.7071 0.7071 -124.816 301.331)" width="142.048" height="20.089"/>
				
					<rect x="228.569" y="261.162" transform="matrix(0.7071 -0.7071 0.7071 0.7071 -112.3447 271.1896)" width="85.227" height="20.089"/>
				
					<rect x="288.848" y="321.425" transform="matrix(0.7071 -0.7071 0.7071 0.7071 -137.3017 331.4641)" width="85.227" height="20.089"/>
			</g>
		</g>
	</g>
</g>
<g>
</g>
<g>
</g>
<g>
</g>
<g>
</g>
<g>
</g>
<g>
</g>
<g>
</g>
<g>
</g>
<g>
</g>
<g>
</g>
<g>
</g>
<g>
</g>
<g>
</g>
<g>
</g>
<g>
</g>
</svg>
